<?xml version="1.0" standalone="no"?>
<!DOCTYPE svg PUBLIC "-//W3C//DTD SVG 20010904//EN"
 "http://www.w3.org/TR/2001/REC-SVG-20010904/DTD/svg10.dtd">
<svg version="1.0" xmlns="http://www.w3.org/2000/svg"
 width="700.000000pt" height="700.000000pt" viewBox="0 0 700.000000 700.000000"
 preserveAspectRatio="xMidYMid meet">
<metadata>
Created by potrace 1.14, written by Peter Selinger 2001-2017
</metadata>
<g transform="translate(0.000000,700.000000) scale(0.100000,-0.100000)"
fill="#000000" stroke="none">
<path d="M3517 6994 c-1 -1 -58 -5 -126 -8 -69 -4 -127 -9 -130 -10 -3 -2 -37
-7 -76 -11 -38 -4 -73 -8 -76 -11 -3 -2 -24 -6 -47 -9 -81 -10 -280 -56 -453
-105 -337 -96 -566 -187 -808 -322 -58 -32 -106 -58 -107 -58 -10 0 -315 -210
-334 -230 -3 -3 -27 -23 -55 -44 -160 -127 -313 -278 -499 -493 -80 -91 -215
-285 -303 -433 -233 -391 -412 -904 -458 -1315 -3 -27 -7 -60 -9 -73 -25 -128
-26 -580 -1 -782 14 -113 18 -143 31 -215 7 -44 16 -91 19 -105 4 -14 10 -43
15 -65 119 -540 369 -1044 740 -1490 217 -259 514 -515 825 -710 187 -117 405
-223 635 -308 191 -71 510 -149 696 -172 22 -2 64 -8 94 -12 73 -10 626 -10
715 0 84 9 298 42 375 57 30 7 69 14 85 17 58 9 253 63 361 99 292 97 551 221
809 389 95 62 266 187 301 219 6 6 33 29 59 51 256 212 568 578 711 830 6 11
26 45 44 75 145 242 298 620 365 908 24 102 57 280 70 375 17 136 21 786 5
922 -19 164 -21 181 -30 215 -5 19 -11 53 -15 75 -10 73 -65 283 -104 403
-103 312 -225 564 -404 832 -49 74 -93 137 -96 140 -4 3 -21 25 -38 50 -78
114 -315 365 -472 500 -35 30 -69 60 -75 65 -6 6 -38 30 -71 54 -33 25 -76 56
-95 71 -65 49 -159 110 -169 110 -6 0 -11 5 -11 10 0 6 -4 10 -8 10 -5 0 -45
22 -89 48 -176 106 -456 231 -661 296 -84 26 -293 82 -341 91 -14 3 -37 7 -51
10 -89 19 -274 42 -395 51 -83 6 -343 12 -348 8z"/>
</g>
</svg>
