<svg xmlns="http://www.w3.org/2000/svg" height="100%" width="100%" viewBox="0 0 24 24">
  <path d="M2 13a10 10 0 1 0 20 0 10 10 0 1 0-20 0z" fill="#2980b9" />
  <path d="M2 12a10 10 0 1 0 20 0 10 10 0 1 0-20 0z" fill="#3498db" />
  <path d="M-83-9a10 10 0 1 0 20 0 10 10 0 1 0-20 0z" fill="#2980b9" />
  <path d="M-83-10a10 10 0 1 0 20 0 10 10 0 1 0-20 0z" fill="#3498db" />
  <path
    d="M-73-14c-2.416 0-4.44 1.7-4.906 4h1.656c.445-1.4 1.732-2.5 3.281-2.5.938 0 1.79.4 2.407 1L-72-10H-68v-4l-1.469 1.4C-70.376-13.5-71.62-14-73-14zm-5 6v4l1.469-1.5C-75.624-4.6-74.38-4-73-4c2.416 0 4.44-1.8 4.906-4h-1.656a3.425 3.425 0 0 1-3.281 2.4c-.938 0-1.79-.4-2.407-1L-74-8H-78z"
    fill="#2980b9" />
  <path
    d="M-73-15c-2.416 0-4.44 1.7-4.906 4h1.656c.445-1.4 1.732-2.5 3.281-2.5.938 0 1.79.4 2.407 1L-72-11H-68v-4l-1.469 1.4C-70.376-14.5-71.62-15-73-15zm-5 6v4l1.469-1.5C-75.624-5.6-74.38-5-73-5c2.416 0 4.44-1.8 4.906-4h-1.656a3.425 3.425 0 0 1-3.281 2.4c-.938 0-1.79-.4-2.407-1L-74-9H-78z"
    fill="#ecf0f1" />
  <path
    d="M12 7c-2.976 0-5.433 2.1-5.906 5h2.062c.445-1.8 1.981-3 3.844-3 1.366 0 2.537.7 3.25 1.7L14 12H18V8l-1.281 1.2C15.624 7.8 13.915 7 12 7zm-6 7v4l1.281-1.3A5.98 5.98 0 0 0 12 19c2.976 0 5.433-2.2 5.906-5h-2.062c-.445 1.7-1.981 3-3.844 3-1.366 0-2.537-.7-3.25-1.8L10 14H6z"
    fill="#2980b9" />
  <path
    d="M12 6a5.982 5.982 0 0 0-5.906 5h2.062C8.601 9.276 10.137 8 12 8c1.366 0 2.537.704 3.25 1.75L14 11H18V7l-1.281 1.281A5.978 5.978 0 0 0 12 6zm-6 7v4l1.281-1.281A5.978 5.978 0 0 0 12 18a5.982 5.982 0 0 0 5.906-5h-2.062c-.445 1.724-1.981 3-3.844 3-1.366 0-2.537-.704-3.25-1.75L10 13H6z"
    fill="#ecf0f1" />
</svg>